<svg xmlns="http://www.w3.org/2000/svg" width="512" height="512" viewBox="0 0 512 512" role="img" aria-label="GRWTEE">
  <rect width="512" height="512" rx="112" fill="#422064"/>
  <g transform="translate(160 128) scale(1.95)" fill="#ffffff">
    <path d="M106.34,77.93l0,47-2.57-2-2.87-1.85c-.75-.42-1.49-.84-2.28-1.21a13.18,13.18,0,0,0-7.65-1c-4.54.74-8.25,3.53-12.61,4.73a56.56,56.56,0,0,1-11.13,1.81,80.86,80.86,0,0,1-28.66-3c-10.25-3.11-19.85-8.63-26.76-16.89C-4.13,86.37.33,60.86,1.35,55.3,2.27,50,6,30.07,23.51,15.6c.75-.6,1.53-1.25,2.32-1.86,1.49-1.06,3-2.13,4.5-3.1a62.54,62.54,0,0,1,39-10c10.86.74,21.06,4.22,31.68,6,.37,0,5.24.69,5.24.93V26c0,2.32,0,4.63,0,7s0,4.59-.09,6.77c0,.51-1.06-2.55-1.39-3.43-2.36-6.35-5.61-13-8.25-16.51-.84-1.06-1.72-2.13-2.65-3.11A41.77,41.77,0,0,0,79.44,7.39c-6.35-2.5-12.84-3.9-19.71-3.2C48,5.4,36.55,10.73,29,19.91c-6.59,8-10.16,18.18-11.09,28.43a57,57,0,0,0,5.15,30c9.69,20,31.12,31.82,52.92,33.07.88,0,12.84.23,12.84-.46v-33Z"/>
  </g>
</svg>
