<svg xmlns="http://www.w3.org/2000/svg" viewBox="0 0 696.33 128.98"><defs><style>.cls-1{fill:#422064;}</style></defs><g id="Layer_2" data-name="Layer 2"><g id="Layer_1-2" data-name="Layer 1"><path class="cls-1" d="M146.46,73.43H128.37v1.81h18.46C146.69,74.63,146.55,74.08,146.46,73.43Z"/><path class="cls-1" d="M128.35,73.41v1.81H76.27c-3.94,0-6.86.6-8.72,1.76s-5.61,4-5.61,4l2.6-7.56Z"/><path class="cls-1" d="M207.33,127.53c-29.17,0-28.48-54.12-55.88-53v32c0,16.28,5,17.39,7.88,18.27H120.28s8.07-1.43,8.07-18.27V75.22h18.46c-.14-.6-.28-1.16-.37-1.81h5c21.84-.69,40.3-15,40.3-36.17,0-21.84-18.46-34.74-40.3-36.17V70.82h-23.1V18.27C128.35.7,120.28,0,120.28,0h39.93C199.26,0,216,19.34,216,36.87c0,19-21.15,34.41-55.75,36.91,20.64,3.39,42.3,31.73,56.07,31.73a7.39,7.39,0,0,0,7.56-5.94C234.74,107.82,223.65,127.53,207.33,127.53Z"/><path class="cls-1" d="M106.34,77.93l0,47-2.57-2-2.87-1.85c-.75-.42-1.49-.84-2.28-1.21a13.18,13.18,0,0,0-7.65-1c-4.54.74-8.25,3.53-12.61,4.73a56.56,56.56,0,0,1-11.13,1.81,80.86,80.86,0,0,1-28.66-3c-10.25-3.11-19.85-8.63-26.76-16.89C-4.13,86.37.33,60.86,1.35,55.3,2.27,50,6,30.07,23.51,15.6c.75-.6,1.53-1.25,2.32-1.86,1.49-1.06,3-2.13,4.5-3.1a62.54,62.54,0,0,1,39-10c10.86.74,21.06,4.22,31.68,6,.37,0,5.24.69,5.24.93V26c0,2.32,0,4.63,0,7s0,4.59-.09,6.77c0,.51-1.06-2.55-1.39-3.43-2.36-6.35-5.61-13-8.25-16.51-.84-1.06-1.72-2.13-2.65-3.11A41.77,41.77,0,0,0,79.44,7.39c-6.35-2.5-12.84-3.9-19.71-3.2C48,5.4,36.55,10.73,29,19.91c-6.59,8-10.16,18.18-11.09,28.43a57,57,0,0,0,5.15,30c9.69,20,31.12,31.82,52.92,33.07.88,0,12.84.23,12.84-.46v-33Z"/><path class="cls-1" d="M405.46,0C389,4.54,366.57,87.1,355.81,124.53c-12-.19-20.46,2-27.46,3.25L308.74,64.31l-18.05,60.22c-12-.19-20.43,2-27.43,3.25L228.84,17.18C224.88,5.08,221.11,2,215.73,0h40.88c-3,1.44-7,3.25-2.66,17l29.2,94.33c1.81,5.61,3.42,9,4.85,10.85l18.84-63.6L293.92,17.18C289.8,4.35,284.77,2,280.84,0h40.89c-2.88,1.28-7,3.06-2.69,17l29.23,94.33c1.8,5.77,3.58,9.22,4.84,11C384.31,14.27,384,5.79,373.73,0Z"/><path class="cls-1" d="M445.38,106.58V.91c-15.77,0-32.6,7.52-38.51,12.53L412.78,0h88.66l6.09,13.43C501.62,8.61,483.17.91,468.66.91V106.58c0,14.87,8.06,18.27,8.06,18.27H437.67C437.5,124.85,445.38,121.45,445.38,106.58Z"/><path class="cls-1" d="M604,110.89c0,12.53-11.64,18.09-25.09,18.09-14.33,0-37.61-5.56-50-5.56-7.7,0-12.15-.33-17.16,1.43.51-.37,5.52-3,5.52-20.59V18.65c0-15.07-5.89-18.08-7.33-18.64h83.66l5.7,13.08a59.88,59.88,0,0,0-5.86-2.75,72.67,72.67,0,0,0-9-2.89c-5.6-1.38-21.85-3.64-43.82-5.26V50.7c12.85-.51,41.32-1.81,47.72-4.64.05,0,.1-.05.14-.05l-6.12,16.1c-8-5.1-15.35-7.52-41.74-7.84V122C573.86,125.78,599.27,120.22,604,110.89Z"/><path class="cls-1" d="M696.33,110.89c0,12.53-11.64,18.09-25.09,18.09-14.33,0-37.61-5.56-50-5.56-7.7,0-12.15-.33-17.16,1.43.51-.37,5.52-3,5.52-20.59V18.65c0-15.07-5.89-18.08-7.33-18.64h83.66l5.71,13.08a60.27,60.27,0,0,0-5.87-2.75,72.67,72.67,0,0,0-9-2.89c-5.6-1.38-21.85-3.64-43.82-5.26V50.7c12.85-.51,41.33-1.81,47.73-4.64,0,0,.09-.05.13-.05l-6.12,16.1c-8-5.1-15.35-7.52-41.74-7.84V122C666.23,125.78,691.65,120.22,696.33,110.89Z"/></g></g></svg>